<svg version="1.1" id="Layer_1" xmlns="http://www.w3.org/2000/svg" xmlns:xlink="http://www.w3.org/1999/xlink" x="0px" y="0px" viewBox="0 0 500 500" style="width: 166px;" xml:space="preserve" data-imageid="startup-15" imageName="Startup" class="illustrations_image">
<style type="text/css">
	.st0_startup-15{fill:#DFEAEF;}
	.st1_startup-15{fill:#093F68;}
	.st2_startup-15{fill:#68E1FD;}
	.st3_startup-15{fill:#FFFFFF;}
	.st4_startup-15{fill:none;}
	.st5_startup-15{fill:#F56132;}
	.st6_startup-15{fill:#FFBC0E;}
</style>
<g id="lines_startup-15">
	<path class="st0_startup-15" d="M394.5,242.6c-1,0-1.9-0.8-1.9-1.8c0,0,0,0,0,0v-7.5c-0.1-1,0.7-1.9,1.7-2c1-0.1,1.9,0.7,2,1.7&#xA;&#9;&#9;c0,0.1,0,0.2,0,0.3v7.5C396.4,241.7,395.5,242.6,394.5,242.6z"/>
	<path class="st0_startup-15" d="M394.5,259.5c-1,0-1.9-0.8-1.9-1.9l0,0v-7.5c0.1-1,1-1.8,2-1.7c0.9,0.1,1.7,0.8,1.7,1.7v7.5&#xA;&#9;&#9;C396.4,258.6,395.5,259.5,394.5,259.5C394.5,259.5,394.5,259.5,394.5,259.5z"/>
	<path class="st0_startup-15" d="M406.7,247.2h-7.5c-1,0.1-1.9-0.7-2-1.7c-0.1-1,0.7-1.9,1.7-2c0.1,0,0.2,0,0.3,0h7.5c1-0.1,1.9,0.7,2,1.7&#xA;&#9;&#9;c0.1,1-0.7,1.9-1.7,2C406.9,247.3,406.8,247.3,406.7,247.2z"/>
	<path class="st0_startup-15" d="M389.8,247.2h-7.5c-1-0.1-1.8-1-1.7-2c0.1-0.9,0.8-1.7,1.7-1.7h7.5c1,0.1,1.8,1,1.7,2&#xA;&#9;&#9;C391.5,246.5,390.7,247.2,389.8,247.2z"/>
	<path class="st0_startup-15" d="M301.5,96.2c-1,0-1.9-0.8-1.9-1.8c0,0,0,0,0,0v-7.5c0.1-1,1-1.8,2-1.7c0.9,0.1,1.7,0.8,1.7,1.7v7.5&#xA;&#9;&#9;C303.3,95.4,302.5,96.3,301.5,96.2C301.5,96.3,301.5,96.3,301.5,96.2z"/>
	<path class="st0_startup-15" d="M301.5,113.2c-1,0-1.9-0.8-1.9-1.8c0,0,0,0,0,0v-7.5c-0.1-1,0.7-1.9,1.7-2c1-0.1,1.9,0.7,2,1.7&#xA;&#9;&#9;c0,0.1,0,0.2,0,0.3v7.5C303.3,112.3,302.5,113.1,301.5,113.2z"/>
	<path class="st0_startup-15" d="M313.6,101h-7.5c-1,0.1-1.9-0.7-2-1.7c-0.1-1,0.7-1.9,1.7-2c0.1,0,0.2,0,0.3,0h7.5c1-0.1,1.9,0.7,2,1.7&#xA;&#9;&#9;c0.1,1-0.7,1.9-1.7,2C313.8,101,313.7,101,313.6,101z"/>
	<path class="st0_startup-15" d="M296.8,101h-7.5c-1-0.1-1.8-1-1.7-2c0.1-0.9,0.8-1.7,1.7-1.7h7.5c1,0.1,1.8,1,1.7,2&#xA;&#9;&#9;C298.4,100.2,297.7,100.9,296.8,101z"/>
	<path class="st0_startup-15" d="M407,189.2c-1,0-1.9-0.8-1.9-1.8v0v-13.8c-0.1-1,0.7-1.9,1.7-2c1-0.1,1.9,0.7,2,1.7c0,0.1,0,0.2,0,0.3v13.8&#xA;&#9;&#9;C408.9,188.4,408.1,189.2,407,189.2C407.1,189.2,407.1,189.2,407,189.2z"/>
	<path class="st0_startup-15" d="M414,182.3h-13.8c-1-0.1-1.8-1-1.7-2c0.1-0.9,0.8-1.7,1.7-1.7H414c1-0.1,1.9,0.7,2,1.7c0.1,1-0.7,1.9-1.7,2&#xA;&#9;&#9;C414.2,182.3,414.1,182.3,414,182.3z"/>
</g>
<g id="device_startup-15">
	<path class="st1_startup-15" d="M357.9,347l-113.2,71.2c-6.9,4.3-15.9,2.2-20.2-4.6l-137-217.9c-4.3-6.9-2.2-15.9,4.6-20.2l113.2-71.2&#xA;&#9;&#9;c6.9-4.3,15.9-2.2,20.2,4.6l137,217.9C366.8,333.6,364.8,342.7,357.9,347z"/>
	<path class="st1_startup-15" d="M237.4,421.6c-6.3,0-12.1-3.2-15.4-8.5l-135.3-215c-5.3-8.5-2.8-19.7,5.7-25.1l110.3-69.4&#xA;&#9;&#9;c8.5-5.4,19.8-2.8,25.2,5.7l135.2,215c5.4,8.5,2.8,19.8-5.7,25.1c0,0,0,0,0,0l-110.4,69.4C244.2,420.7,240.9,421.6,237.4,421.6z&#xA;&#9;&#9; M212.5,104.5c-2.7,0-5.4,0.8-7.7,2.2L94.4,176.1c-6.8,4.3-8.8,13.2-4.6,20l135.2,215c4.3,6.8,13.2,8.8,20,4.6l0,0l110.3-69.4&#xA;&#9;&#9;c6.8-4.3,8.8-13.2,4.6-20l-135.2-215C222.1,107,217.5,104.5,212.5,104.5z"/>
	<path class="st2_startup-15 targetColor" d="M373.4,337.3l-109.7,69c-7.8,4.9-18.2,2.6-23.1-5.3L105.7,186.6c-4.9-7.8-2.6-18.2,5.3-23.1l109.7-69&#xA;&#9;&#9;c7.8-4.9,18.2-2.6,23.1,5.3l134.8,214.4C383.5,322,381.2,332.3,373.4,337.3z" style="fill: rgb(13, 110, 253);"/>
	<path class="st1_startup-15" d="M254.6,410.8c-6.3,0-12.1-3.2-15.5-8.5l-135.2-215c-5.4-8.5-2.8-19.8,5.7-25.1c0,0,0,0,0,0L220,92.8&#xA;&#9;&#9;c8.5-5.4,19.8-2.8,25.1,5.7l135.2,215c5.4,8.5,2.8,19.8-5.7,25.1c0,0,0,0,0,0L264.3,408l-1-1.6l1,1.6&#xA;&#9;&#9;C261.4,409.8,258.1,410.8,254.6,410.8z M229.7,93.7c-2.7,0-5.4,0.8-7.7,2.2l-110.4,69.4c-6.8,4.3-8.8,13.2-4.6,20l135.2,215&#xA;&#9;&#9;c4.3,6.8,13.2,8.8,20,4.6l110.3-69.4c6.8-4.3,8.8-13.2,4.6-20L242,100.5C239.3,96.2,234.7,93.7,229.7,93.7L229.7,93.7z"/>
	<path class="st3_startup-15" d="M356,304.9l-114,71.7c-2.2,1.4-5,0.7-6.4-1.5L124.2,198c-1.4-2.2-0.7-5,1.5-6.4l114-71.7&#xA;&#9;&#9;c2.2-1.4,5-0.7,6.4,1.5l111.4,177.2C358.8,300.7,358.1,303.5,356,304.9z"/>
	<path class="st1_startup-15" d="M240.8,377.7c-3.6,0-6.9-1.8-8.8-4.9L124.7,202.3c-3-4.9-1.6-11.3,3.3-14.3l107.3-67.5&#xA;&#9;&#9;c4.9-3.1,11.3-1.6,14.4,3.3c0,0,0,0,0,0l107.2,170.4c3.1,4.9,1.6,11.3-3.3,14.4l-107.3,67.5l0,0&#xA;&#9;&#9;C244.7,377.1,242.7,377.7,240.8,377.7z M245.3,374.5L245.3,374.5z M240.8,122.6c-1.3,0-2.5,0.3-3.6,1L130,191.1&#xA;&#9;&#9;c-3.1,2-4.1,6.1-2.1,9.3l107.2,170.5c2,3.1,6.1,4.1,9.2,2.1l107.3-67.5c3.1-2,4.1-6.1,2.1-9.3L246.6,125.7c-0.9-1.5-2.4-2.6-4.2-3&#xA;&#9;&#9;C241.9,122.6,241.4,122.6,240.8,122.6L240.8,122.6z"/>
	<circle class="st1_startup-15" cx="197.2" cy="129.9" r="2.6"/>
	<path class="st1_startup-15" d="M150.8,160.9c-1,0-1.9-0.8-1.9-1.9c0-0.6,0.3-1.2,0.9-1.6l35.7-22.5c0.9-0.6,2-0.3,2.6,0.6&#xA;&#9;&#9;c0.6,0.9,0.3,2-0.6,2.6l-35.7,22.4C151.5,160.8,151.2,160.9,150.8,160.9z"/>
	<circle class="st1_startup-15" cx="308.2" cy="355.4" r="11.1"/>
	<line class="st4_startup-15" x1="150.6" y1="272.5" x2="141.9" y2="278"/>
	<path class="st1_startup-15" d="M142,279.8c-1,0-1.9-0.8-1.9-1.9c0-0.6,0.3-1.2,0.9-1.6l8.7-5.5c0.9-0.6,2-0.3,2.6,0.6c0.6,0.9,0.3,2-0.6,2.6&#xA;&#9;&#9;l0,0l-8.7,5.5C142.7,279.7,142.4,279.8,142,279.8z"/>
	<path class="st0_startup-15" d="M341.9,299.6c-0.6,0-1.2-0.3-1.6-0.9l-28.4-44.9c-0.6-0.9-0.3-2,0.6-2.6s2-0.3,2.6,0.6l28.4,45&#xA;&#9;&#9;c0.5,0.9,0.3,2-0.6,2.6C342.5,299.5,342.2,299.6,341.9,299.6z"/>
	<path class="st0_startup-15" d="M163.9,232.6c-0.6,0-1.2-0.3-1.6-0.9l-5.7-8.9c-0.6-0.8-0.3-2,0.5-2.5c0,0,0,0,0,0l95.2-60.1&#xA;&#9;&#9;c0.9-0.5,2-0.3,2.5,0.5l23.7,35.6c0.6,0.8,0.5,2-0.4,2.6c-0.8,0.6-2,0.5-2.6-0.4c0-0.1-0.1-0.1-0.1-0.2l-22.7-34.1l-92.1,58.2&#xA;&#9;&#9;l4.7,7.3c0.6,0.9,0.3,2-0.5,2.6c0,0,0,0,0,0C164.6,232.5,164.2,232.6,163.9,232.6z"/>
	<path class="st0_startup-15" d="M141.8,201.4c-1,0-1.8-0.8-1.8-1.9c0-0.6,0.3-1.2,0.8-1.5l8.6-5.7c0.9-0.6,2-0.3,2.6,0.5&#xA;&#9;&#9;c0.6,0.9,0.3,2-0.5,2.6l-8.6,5.7C142.5,201.3,142.2,201.4,141.8,201.4z"/>
	<path class="st0_startup-15" d="M146.4,207.4c-1,0-1.8-0.8-1.8-1.9c0-0.6,0.3-1.2,0.8-1.5l7.7-5.1c0.8-0.6,2-0.5,2.6,0.3s0.5,2-0.3,2.6&#xA;&#9;&#9;c-0.1,0.1-0.2,0.1-0.3,0.2l-7.7,5.1C147.1,207.3,146.8,207.4,146.4,207.4z"/>
	<path class="st0_startup-15" d="M150.7,213.4c-1,0-1.8-0.8-1.8-1.9c0-0.6,0.3-1.2,0.8-1.5l7.7-5.1c0.9-0.4,2,0,2.5,0.9&#xA;&#9;&#9;c0.4,0.8,0.2,1.7-0.5,2.2l-7.7,5.1C151.4,213.2,151,213.4,150.7,213.4z"/>
	<path class="st0_startup-15" d="M182.6,181.7c-0.6,0-1.2-0.3-1.6-0.9c-0.5-0.9-0.3-2,0.6-2.6c0,0,0,0,0,0l57.2-36.2c0.9-0.6,2-0.3,2.6,0.6&#xA;&#9;&#9;s0.3,2-0.6,2.6l-57.2,36.2C183.3,181.6,182.9,181.7,182.6,181.7z"/>
</g>
<g id="rocket_startup-15">
	<path class="st1_startup-15" d="M209.9,279c-1,0-1.9-0.8-1.9-1.8c0-0.5,0.2-1,0.6-1.4l73.4-68.7c0.7-0.7,1.9-0.7,2.6,0.1&#xA;&#9;&#9;c0.7,0.7,0.7,1.9-0.1,2.6l-73.4,68.7C210.8,278.8,210.4,279,209.9,279z"/>
	<path class="st1_startup-15" d="M271.4,311.9c-1,0-1.9-0.8-1.9-1.9c0-0.3,0.1-0.6,0.2-0.9l43.2-76.8c0.5-0.9,1.6-1.3,2.5-0.8&#xA;&#9;&#9;c0.9,0.5,1.3,1.6,0.8,2.5c0,0.1-0.1,0.1-0.1,0.1L273,310.9C272.7,311.5,272.1,311.9,271.4,311.9z"/>
	<path class="st1_startup-15" d="M241.6,249.3c-0.6,0-1.2-0.3-1.6-0.9c-4.4-6.8-10.3-10.8-17.4-12c-9.8-1.7-22.2,2.3-33,10.7&#xA;&#9;&#9;c-0.5,0.4-1.2,0.5-1.8,0.2c-0.6-0.2-1-0.8-1.1-1.4c-1-6.5-6.5-12.3-13.4-14.1c-6.5-1.7-13.9-0.1-19.9,4.3c-0.8,0.6-2,0.4-2.6-0.4&#xA;&#9;&#9;c-0.6-0.8-0.4-2,0.4-2.6c6.9-5.1,15.5-6.9,23-4.9c7.2,1.9,13,7.2,15.4,14.2c11.2-7.9,23.3-11.5,33.6-9.7c8.2,1.4,14.9,6,19.9,13.6&#xA;&#9;&#9;c0.6,0.9,0.3,2-0.5,2.6C242.3,249.2,242,249.3,241.6,249.3z"/>
	<path class="st1_startup-15" d="M218.4,285.9c-0.4,0-0.9-0.1-1.2-0.4c-17.1-14.4-42.4-6.2-42.6-6.1c-1,0.3-2-0.3-2.3-1.2&#xA;&#9;&#9;c-0.3-0.9,0.2-2,1.2-2.3c1.1-0.4,27.5-8.9,46.2,6.8c0.8,0.7,0.9,1.8,0.2,2.6C219.5,285.7,218.9,285.9,218.4,285.9z"/>
	<path class="st1_startup-15" d="M328.7,319.6c-1,0-1.8-0.7-1.9-1.7c-0.1-2.3-1.2-4.5-3-6c-3.1-2.5-8.6-3.6-15.1-2.8c-1,0.1-1.9-0.6-2.1-1.6&#xA;&#9;&#9;c0-0.3,0-0.5,0.1-0.8c3.3-10.9-2.9-22.5-13.8-25.8c-1.4-0.4-2.8-0.7-4.2-0.8c-1-0.1-1.7-1.1-1.6-2.1c0.1-0.9,1-1.6,1.9-1.6&#xA;&#9;&#9;c13.4,1.2,23.3,13,22.1,26.4c-0.1,0.8-0.2,1.6-0.3,2.3c4.6-0.2,11,0.2,15.3,3.9c2.6,2.1,4.2,5.3,4.3,8.6&#xA;&#9;&#9;C330.6,318.7,329.8,319.6,328.7,319.6C328.8,319.7,328.8,319.7,328.7,319.6L328.7,319.6z"/>
	<path class="st1_startup-15" d="M310.2,321.5c-0.9,0-1.7-0.7-1.8-1.6c-1.2-7.9-7-14.2-14.8-16c-1-0.1-1.7-1.1-1.6-2.1c0.1-1,1.1-1.7,2.1-1.6&#xA;&#9;&#9;c0.1,0,0.2,0,0.3,0.1c9.3,2.1,16.3,9.8,17.7,19.2c0.1,1-0.6,1.9-1.6,2.1c0,0,0,0,0,0L310.2,321.5z"/>
	<path class="st5_startup-15" d="M303,158.8c0,0-18.3-5.5-37,7.2c-15.6,10.6-25.2,26.4-32.4,42.5c-0.6,1.5,0,3.2,1.5,3.8c1,0.5,2.2,0.3,3.1-0.5&#xA;&#9;&#9;c5.1-4.6,11.8-8.6,19.8-9.6c14.5-1.7,20.6,4.3,20.6,4.3L303,158.8z"/>
	<path class="st1_startup-15" d="M236.4,214.5c-1,0-2-0.3-2.8-0.9c-1.8-1.3-2.5-3.7-1.5-5.8c5.7-12.9,15.4-31.3,33-43.3&#xA;&#9;&#9;c19.2-13.1,37.8-7.7,38.5-7.5c0.5,0.1,1,0.5,1.2,1c0.2,0.5,0.2,1.1-0.1,1.6l-24.5,47.9c-0.5,0.9-1.6,1.3-2.5,0.8&#xA;&#9;&#9;c-0.2-0.1-0.4-0.2-0.5-0.4c0-0.1-5.8-5.4-19-3.8c-6.5,0.8-12.8,3.9-18.7,9.1C238.6,214.1,237.5,214.5,236.4,214.5z M293.1,159.5&#xA;&#9;&#9;c-9.3,0-18.4,2.8-26,8.1c-16.8,11.5-26.1,29.3-31.7,41.8c-0.2,0.4-0.1,1,0.3,1.3c0.4,0.3,0.9,0.3,1.3-0.1&#xA;&#9;&#9;c6.5-5.8,13.5-9.2,20.7-10.1c10.7-1.3,17.2,1.5,20.1,3.4l22.4-43.8C297.9,159.7,295.5,159.5,293.1,159.5L293.1,159.5z"/>
	<path class="st5_startup-15" d="M356.1,197.6c0,0,10.8,15.7,4.3,37.4c-5.4,18.1-17.5,32-30.7,43.7c-1.2,1.1-3,1-4.1-0.2&#xA;&#9;&#9;c-0.8-0.8-0.9-2-0.5-3.1c2.8-6.2,4.7-13.8,3.1-21.7c-2.7-14.4-10.4-18.3-10.4-18.3L356.1,197.6z"/>
	<path class="st1_startup-15" d="M327.8,281.3c-1,0-2-0.3-2.8-1c-1.8-1.3-2.5-3.7-1.5-5.7c3.2-7.3,4.2-14.2,3-20.6c-2.5-13.1-9.4-17-9.4-17&#xA;&#9;&#9;c-0.5-0.3-0.9-0.8-1-1.4c-0.1-0.6,0.1-1.2,0.5-1.6l38.2-37.9c0.4-0.4,0.9-0.6,1.5-0.5c0.5,0,1,0.3,1.4,0.8&#xA;&#9;&#9;c0.5,0.7,11.2,16.7,4.6,39c-6.1,20.4-20.7,35.2-31.2,44.6C330,280.9,328.9,281.3,327.8,281.3z M320.8,235.2&#xA;&#9;&#9;c2.7,2.3,7.3,7.6,9.3,18.2c1.4,7.2,0.3,14.8-3.3,22.8c-0.2,0.4-0.1,1,0.3,1.2c0.4,0.3,1,0.3,1.3-0.1c10.2-9.1,24.3-23.4,30.1-42.9&#xA;&#9;&#9;c3.4-11.3,2.3-23.4-3-33.9L320.8,235.2z"/>
	<path class="st6_startup-15" d="M377.6,178.3c-21.5,29.5-42.4,47.9-62.2,59.3l-38.2-27.9c4.8-22.3,16-47.8,37.6-77.3&#xA;&#9;&#9;c7.8-10.7,17-20.2,27.5-28.3c30.2-23.2,59.6-24.9,59.6-24.9s7.3,28.5-5.7,64.3C391.7,156,385.4,167.7,377.6,178.3z"/>
	<path class="st1_startup-15" d="M315.4,239.5c-0.4,0-0.8-0.1-1.1-0.4l-38.1-27.9c-0.6-0.4-0.9-1.2-0.7-1.9c5.4-25,17.8-50.5,37.9-78&#xA;&#9;&#9;c7.9-10.8,17.3-20.5,27.9-28.7c30.3-23.3,59.4-25.2,60.6-25.3c0.9,0,1.7,0.5,1.9,1.4c0.3,1.2,7.3,29.4-5.7,65.4&#xA;&#9;&#9;c-4.6,12.6-10.9,24.5-18.9,35.3l0,0c-20.1,27.5-40.6,47.1-62.8,59.8C316,239.4,315.7,239.5,315.4,239.5z M279.3,209l36.2,26.4&#xA;&#9;&#9;c21.3-12.5,41.1-31.5,60.6-58.2l0,0c7.7-10.5,13.9-22.1,18.4-34.3c10.9-30.3,7.2-55.4,5.9-61.7c-6.4,0.8-31.5,4.9-57,24.4&#xA;&#9;&#9;c-10.3,8-19.5,17.4-27.1,27.9C296.8,160.2,284.7,184.9,279.3,209z"/>
	<polygon class="st1_startup-15" points="307.8,255.3 262.7,222.3 277.3,209.8 315.3,237.6 &#9;"/>
	<path class="st1_startup-15" d="M307.8,257.1c-0.4,0-0.8-0.1-1.1-0.4l-45.1-33c-0.5-0.3-0.7-0.9-0.8-1.4c0-0.6,0.2-1.1,0.6-1.5l14.6-12.5&#xA;&#9;&#9;c0.7-0.6,1.6-0.6,2.3-0.1l38.1,27.8c0.7,0.5,1,1.4,0.6,2.2l-7.5,17.7c-0.2,0.5-0.7,0.9-1.2,1.1C308.2,257.1,308,257.1,307.8,257.1z&#xA;&#9;&#9; M265.7,222.1l41.3,30.3l6-14.2l-35.7-26.1L265.7,222.1z"/>
	<circle class="st2_startup-15 targetColor" cx="348.1" cy="152.7" r="20.2" style="fill: rgb(13, 110, 253);"/>
	<path class="st1_startup-15" d="M348.1,174.8c-12.2,0-22-9.9-22-22.1c0-12.2,9.9-22,22.1-22c12.2,0,22,9.9,22,22.1c0,4.7-1.5,9.2-4.3,13&#xA;&#9;&#9;C361.8,171.5,355.2,174.8,348.1,174.8z M348.2,134.4c-10.1,0-18.3,8.2-18.3,18.4s8.2,18.3,18.4,18.3c10.1,0,18.3-8.2,18.3-18.4&#xA;&#9;&#9;c0-5.9-2.8-11.3-7.5-14.8C355.9,135.6,352.1,134.4,348.2,134.4L348.2,134.4z"/>
	<path class="st5_startup-15" d="M396.2,143.5l-53.9-39.4c30.2-23.2,59.6-24.9,59.6-24.9S409.1,107.7,396.2,143.5z"/>
	<path class="st1_startup-15" d="M396.2,145.4c-0.4,0-0.8-0.1-1.1-0.4l-53.9-39.4c-0.8-0.6-1-1.8-0.4-2.6c0.1-0.2,0.3-0.3,0.4-0.4&#xA;&#9;&#9;c30.3-23.3,59.4-25.2,60.6-25.3c0.9,0,1.7,0.5,1.9,1.4c0.3,1.2,7.3,29.4-5.7,65.4c-0.2,0.5-0.6,1-1.2,1.1&#xA;&#9;&#9;C396.6,145.3,396.4,145.4,396.2,145.4z M345.4,104.1l49.9,36.4c9.9-29.2,6.3-53.2,5.1-59.3C394.1,81.9,370.2,85.8,345.4,104.1z"/>
	<path class="st6_startup-15" d="M326.4,179.1l3.1,2.3c1,0.7,1.2,2.2,0.5,3.2l-46.8,64c-0.7,1-2.2,1.2-3.2,0.5l-3.1-2.3c-1-0.7-1.2-2.2-0.5-3.2&#xA;&#9;&#9;l46.8-64C324,178.6,325.4,178.4,326.4,179.1z"/>
	<path class="st1_startup-15" d="M281,250.6c-3.3,0-6-2.6-6.1-5.9c0-1.3,0.4-2.6,1.2-3.7l44.5-60.9c1.9-2.7,5.7-3.3,8.4-1.4c0,0,0,0,0.1,0&#xA;&#9;&#9;c2.7,2,3.3,5.7,1.3,8.4l-44.5,60.9C284.8,249.6,283,250.6,281,250.6z M325.5,181.3h-0.4c-0.6,0.1-1.2,0.4-1.5,0.9l-44.5,60.9&#xA;&#9;&#9;c-0.4,0.5-0.5,1.1-0.4,1.7c0.1,0.6,0.4,1.2,0.9,1.5l0,0c1,0.8,2.5,0.5,3.2-0.5c0,0,0,0,0,0l44.5-60.9c0.8-1,0.5-2.5-0.5-3.3&#xA;&#9;&#9;C326.5,181.4,326,181.3,325.5,181.3L325.5,181.3z"/>
	<path class="st3_startup-15" d="M357,165.8c-1,0-1.8-0.9-1.8-1.9c0-0.6,0.3-1.2,0.8-1.5c0,0,2.5-1.7,4.1-6.2c2.2-5.9-2.3-10.9-2.5-11.1&#xA;&#9;&#9;c-0.7-0.8-0.6-1.9,0.1-2.6c0.8-0.7,1.9-0.6,2.6,0.1l0,0c0.3,0.3,6.2,6.9,3.3,14.9c-2.1,5.7-5.4,7.9-5.5,8&#xA;&#9;&#9;C357.7,165.7,357.4,165.8,357,165.8z"/>
	<path class="st3_startup-15" d="M349.9,169.2c-1,0-1.8-0.9-1.8-1.9c0-0.9,0.7-1.7,1.6-1.8c1.2-0.2,2.4-0.5,3.5-1c1-0.4,2,0.1,2.4,1.1&#xA;&#9;&#9;c0.3,0.9-0.1,1.9-0.9,2.3c-1.5,0.6-3,1.1-4.5,1.3L349.9,169.2z"/>
	<path class="st1_startup-15" d="M273.9,328.6c-1,0-1.9-0.8-1.9-1.8c0-0.1,0-0.3,0-0.4c2.8-13-9.4-20.3-10-20.6c-0.9-0.5-1.2-1.7-0.7-2.5&#xA;&#9;&#9;s1.7-1.2,2.5-0.7l0,0c0.1,0.1,15.1,9,11.7,24.6C275.5,327.9,274.8,328.5,273.9,328.6z"/>
</g>
</svg>